<svg width="14" height="18" viewBox="0 0 14 18" fill="none" xmlns="http://www.w3.org/2000/svg">
<path d="M6.94332 6.48333L5.56499 7.72C5.74593 8.34408 6.00049 8.94442 6.32332 9.50833C6.65931 10.0684 7.06351 10.5845 7.52665 11.045L9.31165 10.495C10.3117 10.1867 11.4033 10.5033 12.0683 11.295L13.085 12.505C13.4966 12.9907 13.703 13.6177 13.6603 14.2529C13.6177 14.8882 13.3295 15.4819 12.8567 15.9083C11.1983 17.4217 8.64499 17.9333 6.73332 16.4317C5.0532 15.1087 3.63162 13.4872 2.53998 11.6483C1.44595 9.81816 0.713791 7.79481 0.383318 5.68833C0.0166516 3.31833 1.75165 1.42167 3.91499 0.775001C5.20499 0.388334 6.58165 1.05167 7.05499 2.28833L7.61332 3.74667C7.97998 4.70667 7.71665 5.78833 6.94332 6.48167V6.48333Z" fill="#A2A2A2"/>
</svg>
