<svg width="24" height="18" viewBox="0 0 24 18" fill="none" xmlns="http://www.w3.org/2000/svg">
<path d="M12.26 0.263997C16.849 0.263997 20.619 3.657 21.256 8.064H23.96L19.41 13.264L14.86 8.064H17.876C17.5851 6.79143 16.8714 5.65507 15.8514 4.84048C14.8314 4.02588 13.5653 3.58118 12.26 3.579C10.375 3.579 8.71098 4.502 7.65798 5.893L5.43498 3.358C6.28584 2.38502 7.33516 1.60549 8.51238 1.07182C9.6896 0.538144 10.9674 0.262698 12.26 0.263997ZM11.74 17.736C7.16398 17.736 3.38098 14.343 2.74398 9.936H0.039978L4.58998 4.736C6.11098 6.465 7.61898 8.207 9.13998 9.936H6.12398C6.41481 11.2086 7.12851 12.3449 8.14852 13.1595C9.16854 13.9741 10.4346 14.4188 11.74 14.421C13.625 14.421 15.289 13.498 16.342 12.107L18.565 14.642C17.7149 15.616 16.6658 16.3962 15.4884 16.9299C14.311 17.4637 13.0327 17.7386 11.74 17.736Z" fill="#A2A2A2"/>
</svg>
