<svg width="16" height="18" viewBox="0 0 16 18" fill="none" xmlns="http://www.w3.org/2000/svg">
<path d="M15 5H13.19C12.739 4.21774 12.1168 3.54767 11.37 3.04L12.3 2.11C12.3926 2.01742 12.466 1.90751 12.5161 1.78655C12.5662 1.66558 12.592 1.53593 12.592 1.405C12.592 1.27407 12.5662 1.14442 12.5161 1.02346C12.466 0.902495 12.3926 0.792584 12.3 0.700002C12.2074 0.607421 12.0975 0.53398 11.9765 0.483876C11.8556 0.433771 11.7259 0.407982 11.595 0.407982C11.3306 0.407982 11.077 0.513025 10.89 0.700002L9.42 2.17C8.96 2.06 8.49 2 8 2C7.51 2 7.04 2.06 6.59 2.17L5.11 0.700002C5.01742 0.607421 4.90751 0.53398 4.78654 0.483876C4.66558 0.433771 4.53593 0.407982 4.405 0.407982C4.27407 0.407982 4.14442 0.433771 4.02346 0.483876C3.90249 0.53398 3.79258 0.607421 3.7 0.700002C3.51302 0.88698 3.40798 1.14058 3.40798 1.405C3.40798 1.66943 3.51302 1.92302 3.7 2.11L4.62 3.04C3.88 3.55 3.26 4.22 2.81 5H1C0.45 5 0 5.45 0 6C0 6.55 0.45 7 1 7H2.09C2.04 7.33 2 7.66 2 8V9H1C0.45 9 0 9.45 0 10C0 10.55 0.45 11 1 11H2V12C2 12.34 2.04 12.67 2.09 13H1C0.45 13 0 13.45 0 14C0 14.55 0.45 15 1 15H2.81C3.85 16.79 5.78 18 8 18C10.22 18 12.15 16.79 13.19 15H15C15.55 15 16 14.55 16 14C16 13.45 15.55 13 15 13H13.91C13.96 12.67 14 12.34 14 12V11H15C15.55 11 16 10.55 16 10C16 9.45 15.55 9 15 9H14V8C14 7.66 13.96 7.33 13.91 7H15C15.55 7 16 6.55 16 6C16 5.45 15.55 5 15 5ZM9 13H7C6.45 13 6 12.55 6 12C6 11.45 6.45 11 7 11H9C9.55 11 10 11.45 10 12C10 12.55 9.55 13 9 13ZM9 9H7C6.45 9 6 8.55 6 8C6 7.45 6.45 7 7 7H9C9.55 7 10 7.45 10 8C10 8.55 9.55 9 9 9Z" fill="#A2A2A2"/>
</svg>
