<svg width="16" height="22" viewBox="0 0 16 22" fill="none" xmlns="http://www.w3.org/2000/svg">
<path d="M14.9648 19.7781C14.962 20.4681 14.3998 21.0258 13.7098 21.0231L11.4508 21.014C11.2611 21.0132 11.0787 20.9405 10.9404 20.8106C10.8021 20.6807 10.7182 20.5033 10.7056 20.314C10.6588 19.6201 10.3509 18.9698 9.84384 18.4939C9.3368 18.018 8.66828 17.7518 7.97289 17.749C7.27749 17.7462 6.60686 18.007 6.096 18.4788C5.58515 18.9506 5.27201 19.5985 5.21963 20.2919C5.20547 20.4811 5.12013 20.6579 4.98081 20.7866C4.84149 20.9154 4.65855 20.9866 4.46883 20.9859L2.20985 20.9768C1.51986 20.974 0.962117 20.4118 0.964893 19.7218L1.03531 2.22191C1.03808 1.53191 1.60033 0.974168 2.29033 0.976945L4.54931 0.986034C4.73902 0.986829 4.92139 1.05949 5.05966 1.18938C5.19794 1.31928 5.28185 1.49674 5.2945 1.68604C5.34129 2.37986 5.64921 3.0302 6.15625 3.50611C6.66329 3.98202 7.3318 4.24817 8.0272 4.25097C8.72259 4.25376 9.39323 3.993 9.90408 3.52119C10.4149 3.04937 10.7281 2.40154 10.7805 1.70811C10.7946 1.51893 10.88 1.34214 11.0193 1.21336C11.1586 1.08459 11.3415 1.0134 11.5313 1.01413L13.7902 1.02322C14.4802 1.02599 15.038 1.58824 15.0352 2.27824L14.9648 19.7781Z" fill="#A2A2A2"/>
</svg>
